<?xml version="1.0" standalone="no"?>
<!DOCTYPE svg PUBLIC "-//W3C//DTD SVG 20010904//EN"
 "http://www.w3.org/TR/2001/REC-SVG-20010904/DTD/svg10.dtd">
<svg version="1.0" xmlns="http://www.w3.org/2000/svg"
 width="156.000000pt" height="156.000000pt" viewBox="0 0 156.000000 156.000000"
 preserveAspectRatio="xMidYMid meet">
<metadata>
Created by potrace 1.11, written by Peter Selinger 2001-2013
</metadata>
<g transform="translate(0.000000,156.000000) scale(0.100000,-0.100000)"
fill="#000000" stroke="none">
<path d="M686 1393 c-3 -7 -18 -13 -33 -13 -15 0 -35 -4 -43 -10 -9 -5 -19 -5
-27 2 -10 8 -12 7 -8 -3 4 -10 -3 -14 -22 -16 -15 0 -32 -8 -38 -17 -7 -9 -15
-13 -18 -9 -4 3 -7 -6 -7 -21 0 -24 -2 -26 -21 -16 -20 11 -33 7 -35 -11 -1
-5 -2 -13 -3 -18 0 -5 -15 -11 -32 -15 -17 -3 -28 -10 -24 -16 3 -5 1 -10 -5
-10 -6 0 -16 -11 -22 -25 -6 -14 -18 -25 -27 -25 -13 0 -13 -2 -2 -9 7 -5 10
-14 7 -20 -4 -6 -11 -9 -16 -6 -5 3 -12 -5 -16 -19 -3 -13 -12 -27 -20 -30 -8
-3 -14 -11 -14 -18 0 -7 -9 -19 -21 -26 -17 -11 -18 -16 -8 -28 9 -11 8 -18
-8 -32 -11 -9 -18 -23 -16 -29 3 -7 -1 -13 -8 -13 -8 0 -6 -5 5 -13 19 -14 12
-49 -9 -41 -16 6 -25 -38 -13 -61 7 -11 5 -24 -6 -40 -12 -18 -13 -31 -6 -49
6 -17 5 -26 -3 -30 -9 -3 -9 -5 0 -5 7 -1 17 -11 24 -22 7 -13 7 -19 1 -15 -6
3 -13 2 -17 -4 -3 -5 -1 -10 5 -10 6 0 9 -4 5 -9 -3 -5 4 -13 16 -16 19 -6 19
-8 3 -19 -12 -9 -14 -15 -6 -20 7 -4 12 -15 12 -25 0 -10 9 -26 20 -36 11 -10
20 -23 20 -29 0 -6 -5 -4 -11 4 -9 12 -10 12 -5 -3 3 -10 6 -23 6 -29 0 -6 9
-8 20 -5 15 4 19 0 17 -17 -1 -15 3 -20 17 -18 10 2 16 -1 13 -5 -7 -11 46
-63 65 -63 7 0 22 -11 32 -25 10 -14 25 -25 32 -25 8 0 14 -6 14 -14 0 -20 27
-41 32 -25 2 7 10 9 16 5 9 -5 8 -12 -4 -24 -14 -13 -14 -17 -3 -21 8 -2 18
-10 22 -17 10 -18 27 -18 27 -1 0 7 9 18 20 24 16 11 18 10 13 -4 -4 -11 -3
-14 5 -9 7 4 12 2 12 -5 0 -7 7 -4 15 7 14 19 14 19 31 -5 15 -21 18 -21 26
-7 11 20 27 20 50 -1 16 -14 23 -15 59 -3 29 10 42 11 47 3 7 -11 61 -13 60
-3 -2 25 5 30 32 25 22 -4 30 -1 30 10 0 9 6 12 16 8 10 -4 23 2 33 14 19 25
68 43 56 22 -8 -14 34 18 46 35 4 5 12 5 18 2 10 -7 16 6 12 28 -2 11 30 35
47 36 19 0 44 28 37 40 -6 9 8 14 28 11 4 0 7 10 7 23 0 13 7 26 15 30 8 3 15
14 15 25 0 11 9 22 20 26 11 4 18 11 15 16 -4 5 -1 9 6 9 6 0 9 8 6 20 -3 13
2 25 15 34 13 10 18 21 14 32 -3 9 -1 23 5 30 8 10 8 14 0 14 -19 0 -12 17 9
23 21 5 28 41 10 52 -13 8 -5 108 9 113 14 5 15 32 1 32 -5 0 -6 7 -3 17 4 9
2 14 -4 10 -13 -8 -11 36 2 45 6 5 6 8 -2 8 -6 0 -18 14 -27 30 -8 17 -10 27
-4 24 6 -4 3 5 -8 19 -10 15 -24 25 -30 23 -6 -3 -12 5 -12 17 -1 12 -3 31 -6
42 -2 11 -5 24 -5 28 -1 5 -6 5 -11 2 -15 -9 -40 14 -40 37 0 10 -5 16 -10 13
-6 -3 -13 2 -17 12 -11 30 -39 53 -51 41 -8 -8 -14 -4 -23 14 -8 18 -17 24
-30 21 -11 -3 -21 1 -25 11 -4 11 -11 13 -23 7 -11 -7 -21 -5 -33 6 -18 16
-88 26 -88 13 0 -4 -15 0 -34 9 -18 9 -32 18 -31 21 7 12 -73 4 -88 -9 -12 -9
-17 -10 -17 -2 0 7 -4 10 -9 7 -5 -4 -11 -1 -13 6 -6 16 -46 17 -52 1z m26
-53 c2 6 14 4 30 -4 25 -13 29 -13 37 2 9 16 11 15 25 -3 8 -11 16 -15 16 -10
0 6 13 10 29 10 16 0 29 -2 29 -5 -2 -26 3 -32 17 -20 8 7 15 9 15 4 0 -5 4
-3 9 5 7 11 11 10 20 -7 7 -13 17 -19 26 -16 8 4 12 11 8 18 -3 6 -1 6 8 -1 7
-7 23 -13 35 -13 17 0 21 -5 17 -19 -3 -10 0 -22 6 -25 6 -4 11 -2 11 4 0 6 4
8 10 5 5 -3 19 -1 30 5 22 12 27 1 8 -19 -10 -11 -10 -13 0 -7 6 4 12 3 12 -3
0 -5 8 -8 18 -7 9 2 27 -10 40 -28 13 -17 28 -30 33 -28 6 1 6 -4 0 -15 -20
-33 -38 -53 -50 -53 -7 0 -9 -5 -6 -11 4 -6 1 -10 -6 -8 -27 3 -39 -1 -39 -13
0 -7 -12 -14 -26 -15 -14 0 -31 -7 -38 -13 -7 -8 -7 -11 0 -7 15 9 54 -21 53
-41 0 -12 -3 -11 -9 6 -9 21 -22 27 -45 22 -5 -1 -15 -3 -22 -3 -6 0 -9 -7 -5
-15 3 -9 1 -13 -5 -9 -6 4 -14 0 -17 -9 -3 -9 -11 -14 -18 -12 -7 3 -22 -6
-34 -19 -12 -13 -31 -23 -43 -23 -16 0 -20 -5 -18 -22 1 -15 -3 -22 -12 -20
-7 1 -24 -4 -37 -13 -22 -14 -23 -14 -18 2 6 22 -12 -14 -20 -41 -5 -15 -9
-16 -21 -6 -12 10 -18 10 -30 0 -8 -7 -12 -16 -9 -21 3 -5 0 -9 -6 -9 -6 0 -8
-5 -4 -12 4 -7 3 -8 -4 -4 -6 4 -18 -5 -28 -19 -9 -14 -21 -22 -28 -18 -17 11
-37 12 -31 3 7 -11 -34 -52 -68 -67 -23 -11 -29 -10 -33 2 -4 8 -3 27 0 41 5
20 10 23 21 14 16 -13 30 3 21 25 -3 9 1 15 10 15 8 0 12 5 9 10 -3 6 -1 10 5
10 6 0 8 5 5 10 -3 6 -1 10 4 10 6 0 10 3 10 8 -4 21 3 30 26 36 14 4 23 11
20 16 -3 6 1 10 9 10 9 0 16 5 16 10 0 6 -4 10 -10 10 -5 0 -10 5 -10 10 0 6
9 10 19 10 11 0 23 5 26 10 3 6 1 10 -4 10 -6 0 -11 5 -11 10 0 6 7 10 15 10
9 0 25 16 36 35 12 19 27 35 35 35 13 0 18 12 15 33 0 4 6 7 14 7 9 0 15 9 15
25 0 22 3 25 25 19 25 -6 35 9 14 22 -7 4 2 13 23 23 24 11 33 21 30 35 -2 11
0 16 6 12 6 -3 13 -2 17 4 3 5 -1 10 -10 10 -10 0 -15 6 -12 13 3 8 -5 12 -24
12 -15 1 -25 -3 -22 -9 4 -5 -1 -7 -12 -2 -16 6 -16 4 -4 -11 12 -14 12 -16
-1 -11 -9 3 -24 0 -34 -8 -11 -7 -23 -11 -27 -8 -5 3 -9 0 -9 -6 0 -6 -6 -10
-12 -9 -29 4 -38 -2 -38 -26 0 -25 -1 -25 -25 -9 -17 11 -25 12 -25 5 0 -7 -4
-9 -10 -6 -6 3 -7 -1 -4 -9 3 -9 2 -16 -4 -16 -6 0 -13 6 -15 13 -3 7 -6 5 -6
-5 -1 -16 -12 -23 -33 -19 -5 0 -8 -6 -8 -15 0 -11 -6 -14 -21 -9 -15 5 -19 4
-14 -5 4 -7 -1 -13 -14 -17 -12 -3 -21 -9 -21 -14 0 -5 -15 -12 -32 -17 -27
-7 -32 -13 -30 -31 3 -21 1 -22 -26 -16 -24 5 -34 1 -53 -22 -25 -29 -108 -86
-95 -65 4 7 2 12 -4 12 -7 0 -8 6 -1 19 6 10 7 22 3 26 -4 5 2 5 13 1 15 -6
17 -4 8 5 -9 9 -7 21 9 50 11 22 23 37 28 34 4 -2 6 7 4 21 -2 19 3 28 17 31
10 3 19 13 19 23 0 11 10 19 25 22 22 5 23 3 13 -10 -11 -13 -10 -14 10 -3 18
10 22 19 20 44 -2 20 2 32 9 32 7 0 26 15 43 33 16 18 35 30 40 27 6 -3 13 0
16 8 3 10 18 14 40 13 28 -1 34 2 34 19 0 16 2 17 10 5 8 -12 10 -12 15 3 5
13 11 14 25 7 12 -6 20 -6 22 0z m59 -201 c-9 -22 -10 -22 -10 -3 -1 11 2 24
6 27 12 12 14 0 4 -24z m-18 -36 c3 -19 0 -27 -14 -30 -11 -3 -19 -11 -19 -18
0 -8 -8 -11 -20 -8 -15 4 -19 1 -15 -9 3 -8 -13 -32 -39 -58 -24 -25 -43 -48
-40 -51 2 -4 -3 -10 -12 -13 -8 -3 -12 -10 -9 -16 3 -6 -1 -13 -9 -16 -9 -3
-13 -10 -10 -16 3 -5 -4 -16 -16 -25 -16 -11 -20 -22 -16 -39 6 -21 3 -24 -19
-24 -16 0 -25 -6 -25 -15 0 -8 -9 -24 -20 -35 -11 -11 -22 -31 -26 -45 -3 -14
-14 -31 -23 -38 -10 -6 -20 -20 -24 -30 -4 -11 -16 -21 -26 -24 -12 -3 -17
-11 -14 -19 3 -8 -2 -21 -11 -27 -10 -7 -17 -17 -16 -22 5 -22 -1 -27 -16 -15
-8 8 -14 9 -12 4 2 -5 -1 -9 -7 -9 -5 0 -10 5 -11 11 -1 6 -5 22 -9 34 -6 18
-9 20 -17 9 -7 -10 -8 -8 -5 9 3 12 1 22 -4 22 -6 0 -5 9 2 21 6 13 7 19 1 15
-12 -7 -36 59 -27 74 3 5 1 10 -6 10 -17 0 -3 72 18 87 9 7 14 16 10 20 -6 6
54 53 69 53 3 0 15 12 26 26 13 16 27 24 39 21 13 -4 16 0 14 14 -2 11 -6 23
-10 28 -3 6 4 9 15 8 11 -1 19 -6 16 -12 -2 -7 2 -12 10 -12 7 0 11 4 8 9 -5
7 10 12 29 9 4 0 7 4 7 9 0 6 8 10 17 10 9 0 14 3 10 6 -10 11 27 44 50 44 13
0 22 5 21 13 -2 6 3 11 10 9 12 -2 43 21 39 29 -1 3 4 -3 12 -11 11 -13 13
-13 9 0 -3 8 9 23 27 36 58 39 80 38 88 -3z m510 -26 c-4 -7 1 -8 13 -3 15 6
17 5 7 -5 -20 -20 -16 -41 6 -34 12 4 21 0 25 -11 5 -12 2 -15 -11 -10 -17 6
-17 5 -1 -7 10 -8 15 -17 11 -20 -3 -4 0 -7 7 -7 11 0 11 -3 2 -12 -13 -13
-17 -42 -4 -35 14 9 7 -150 -8 -168 -10 -12 -11 -18 -2 -24 9 -5 8 -12 -4 -27
-8 -10 -12 -12 -8 -4 4 8 3 12 -1 7 -12 -10 -14 -47 -3 -53 4 -3 -3 -15 -17
-28 -17 -16 -21 -26 -14 -33 12 -12 3 -36 -11 -28 -10 6 -22 -24 -14 -37 3 -5
-2 -8 -11 -6 -12 2 -19 -4 -20 -18 -1 -12 -9 -30 -18 -39 -10 -9 -15 -20 -13
-24 3 -4 -9 -8 -25 -9 -16 -1 -29 3 -29 8 0 6 -4 8 -10 5 -5 -3 -10 -1 -10 4
0 19 -20 12 -28 -10 -5 -11 -12 -20 -17 -20 -6 0 -20 -8 -32 -19 -15 -13 -25
-16 -29 -8 -4 6 1 15 10 20 9 5 16 16 16 23 0 8 5 15 11 15 5 0 8 4 4 10 -10
17 37 85 50 72 4 -4 6 -2 5 3 -3 17 12 55 22 55 5 0 6 5 3 10 -3 5 2 10 12 10
10 0 29 19 45 45 15 25 39 50 54 55 19 8 23 14 16 23 -7 8 -6 18 4 31 8 11 14
17 14 13 0 -5 6 -2 14 5 9 8 11 17 5 24 -7 8 -4 11 7 10 11 0 18 7 19 21 1 13
-3 19 -8 16 -6 -4 -8 0 -4 10 10 25 -25 31 -45 8 -9 -12 -21 -21 -28 -21 -6 0
-9 -4 -5 -9 3 -5 -6 -18 -20 -29 -13 -11 -22 -22 -19 -25 3 -3 -4 -3 -16 0
-16 4 -23 0 -27 -15 -3 -12 -15 -22 -27 -24 -13 -2 -20 -10 -20 -20 1 -10 -7
-20 -17 -23 -11 -4 -19 -11 -19 -17 0 -6 -9 -8 -21 -5 -12 3 -22 0 -25 -8 -3
-8 -11 -12 -17 -10 -7 3 -19 -10 -27 -28 -8 -17 -21 -33 -27 -33 -7 -1 -20 -2
-29 -3 -10 -1 -14 -7 -10 -17 3 -8 2 -13 -3 -10 -4 3 -17 -8 -29 -24 -12 -16
-32 -30 -44 -32 -13 -2 -22 -9 -20 -17 2 -11 0 -12 -10 -3 -11 9 -14 6 -16
-14 -2 -29 -30 -62 -40 -48 -13 18 -35 16 -28 -3 4 -9 4 -14 0 -10 -4 4 -12 0
-18 -8 -9 -13 -11 -11 -12 9 -1 17 6 27 24 36 19 8 22 14 13 19 -9 6 -2 15 24
31 22 14 32 25 26 30 -13 7 30 60 49 60 5 0 10 5 10 10 0 6 12 22 28 36 15 14
20 22 12 18 -13 -7 -13 -6 0 10 8 10 25 22 38 27 18 7 22 14 17 31 -6 17 -4
20 9 15 10 -4 16 -1 16 7 0 16 56 67 65 58 4 -4 3 6 0 21 -6 24 -5 28 11 25
12 -2 20 4 22 16 5 26 24 44 40 38 6 -2 12 1 12 8 0 6 5 8 10 5 9 -6 29 30 34
62 3 17 16 29 16 14 0 -9 5 -9 21 -1 12 7 18 18 15 26 -3 8 1 14 8 14 7 0 20
8 29 18 18 19 51 26 40 9z m-239 -132 c4 -10 -1 -15 -14 -15 -20 0 -26 11 -13
23 10 11 20 8 27 -8z m-28 -26 c4 -7 -11 -27 -35 -48 -22 -20 -41 -43 -41 -51
0 -13 -1 -13 -10 0 -9 13 -10 13 -11 0 -1 -8 -1 -21 0 -27 1 -7 -14 -20 -33
-30 -29 -13 -34 -21 -30 -38 5 -20 2 -22 -20 -18 -15 3 -26 1 -26 -6 0 -6 5
-11 10 -11 6 0 10 -4 10 -9 0 -6 -8 -8 -18 -6 -13 2 -18 -3 -18 -18 1 -16 -4
-21 -16 -19 -11 2 -18 -3 -18 -13 0 -8 -7 -15 -15 -15 -8 0 -12 -6 -9 -14 3
-7 -9 -27 -25 -44 -17 -17 -31 -35 -31 -41 0 -5 -8 -17 -17 -27 -10 -10 -18
-22 -18 -27 0 -4 -16 -21 -35 -37 -19 -16 -29 -30 -22 -30 20 0 13 -17 -10
-24 -22 -5 -23 -6 -3 -21 17 -14 17 -16 3 -11 -11 3 -18 0 -18 -8 0 -7 -10
-13 -22 -12 -15 1 -23 7 -22 18 1 14 -2 15 -17 8 -14 -8 -21 -6 -30 11 -9 17
-13 19 -20 8 -14 -23 -33 4 -20 29 8 15 7 20 -2 19 -55 -2 -67 4 -75 36 -6 24
-14 31 -27 29 -17 -3 -17 -2 -5 13 13 15 15 15 30 -5 15 -20 18 -21 33 -6 8 9
19 16 23 16 4 0 24 18 44 40 27 30 42 39 55 34 13 -5 16 -4 11 4 -4 7 -3 12 2
12 5 0 14 11 20 25 7 16 17 23 27 19 8 -3 15 -1 15 5 0 6 6 11 13 11 8 0 19
11 25 24 6 14 22 26 41 29 17 4 41 18 53 32 12 14 28 25 35 25 8 0 25 12 38
26 14 15 25 23 25 18 0 -5 5 -1 11 10 9 15 13 16 20 5 7 -11 9 -10 9 4 0 9 4
17 9 17 5 0 7 10 4 23 -3 15 -2 18 4 9 8 -10 15 -10 38 2 16 8 32 13 37 10 4
-3 8 2 8 11 0 11 5 15 14 12 10 -4 12 0 9 14 -4 14 0 19 15 19 12 0 24 -5 28
-11z m170 -208 c-12 -19 -24 -12 -19 10 4 13 9 17 15 11 6 -6 7 -15 4 -21z
m-52 -43 c-3 -5 -9 -6 -14 -3 -5 3 -21 -12 -36 -35 -15 -22 -30 -40 -35 -40
-5 0 -6 -13 -3 -30 6 -25 3 -30 -20 -36 -14 -3 -26 -12 -26 -20 0 -8 -5 -14
-11 -14 -5 0 -8 -4 -5 -9 3 -5 -3 -20 -14 -34 -11 -14 -20 -32 -20 -41 0 -9
-7 -16 -16 -16 -8 0 -12 -5 -8 -11 3 -6 0 -15 -7 -20 -8 -4 -14 -12 -15 -16
-2 -18 -30 -70 -38 -72 -5 -2 -12 3 -16 9 -5 8 -16 3 -36 -15 -23 -21 -30 -24
-39 -13 -13 16 -35 21 -35 8 0 -7 -6 -7 -18 -1 -11 6 -23 7 -28 2 -5 -4 -25 0
-44 10 -29 15 -31 18 -12 19 15 0 22 6 22 20 0 13 7 20 20 20 11 0 25 9 32 20
7 11 19 20 26 20 7 0 10 5 7 10 -3 6 2 13 12 17 21 8 63 50 63 64 0 6 9 5 22
-2 18 -10 20 -9 15 5 -4 10 1 20 16 27 12 6 32 22 43 36 12 13 26 23 30 22 23
-4 34 3 34 20 0 11 5 23 12 27 7 5 9 2 3 -7 -4 -8 4 -1 18 14 14 16 30 26 36
23 5 -4 13 3 16 14 4 12 18 26 31 32 13 6 24 16 24 22 0 6 4 4 9 -4 6 -8 7
-18 5 -22z m-601 0 c2 -7 -5 -21 -16 -30 -24 -22 -24 -22 -24 -3 0 8 4 15 9
15 4 0 8 7 8 15 0 18 17 20 23 3z m147 -256 c0 -14 -11 -21 -26 -15 -8 3 -11
9 -8 14 7 11 34 12 34 1z m317 -53 c-15 -24 -20 -18 -11 16 4 18 9 23 14 14 5
-7 3 -20 -3 -30z m103 17 c-27 -25 -43 -25 -33 0 3 8 12 13 19 10 7 -3 16 -1
19 4 4 6 9 10 13 10 4 0 -5 -11 -18 -24z"/>
</g>
</svg>
